<svg width="178" height="81" viewBox="0 0 178 81" fill="none" xmlns="http://www.w3.org/2000/svg">
<g clip-path="url(#clip0_3_27)">
<path d="M29.42 32.8455C27.1388 32.8455 25.1804 33.6893 23.545 35.3664C21.9044 37.0487 21.0867 39.0747 21.0867 41.4497C21.0867 43.856 21.9044 45.9028 23.545 47.5955C25.1804 49.2778 27.1388 50.1164 29.42 50.1164C30.5138 50.1164 31.5502 49.9862 32.5242 49.7205C33.5086 49.4445 34.2325 49.1685 34.6909 48.8872L35.295 48.4705L39.3992 56.8664C39.0763 57.106 38.6336 57.3976 38.0659 57.7414C37.4929 58.0747 36.1961 58.533 34.17 59.1164C32.1388 59.7101 29.9669 60.0122 27.6492 60.0122C22.5086 60.0122 17.9877 58.2101 14.0867 54.5955C10.1961 50.9705 8.25336 46.632 8.25336 41.5747C8.25336 36.481 10.1961 32.106 14.0867 28.4497C17.9877 24.783 22.5086 22.9497 27.6492 22.9497C29.9669 22.9497 32.1075 23.2205 34.0659 23.7622C36.0242 24.3039 37.4096 24.856 38.2325 25.408L39.3992 26.2205L35.295 34.4914C33.795 33.3976 31.8367 32.8455 29.42 32.8455Z" fill="white"/>
<path d="M41.1863 54.8247C37.2957 51.3664 35.353 46.9289 35.353 41.5122C35.353 36.0955 37.379 31.6528 41.4363 28.1789C45.4884 24.6945 50.4988 22.9497 56.4571 22.9497C62.3321 22.9497 67.2801 24.6997 71.3113 28.1997C75.3373 31.6997 77.353 36.1372 77.353 41.5122C77.353 46.8872 75.379 51.3195 71.4363 54.8039C67.504 58.2778 62.5092 60.0122 56.4571 60.0122C50.1759 60.0122 45.0873 58.283 41.1863 54.8247ZM50.5405 35.5747C48.9675 37.1164 48.1863 39.0955 48.1863 41.5122C48.1863 43.9289 48.9363 45.9028 50.4363 47.4289C51.9467 48.9445 53.9363 49.6997 56.3946 49.6997C58.754 49.6997 60.6967 48.9289 62.228 47.3872C63.754 45.8351 64.5196 43.8768 64.5196 41.5122C64.5196 39.0955 63.7332 37.1164 62.1655 35.5747C60.5925 34.033 58.6707 33.2622 56.3946 33.2622C54.0717 33.2622 52.1238 34.033 50.5405 35.5747Z" fill="white"/>
<path d="M78.9743 54.6581C75.6931 51.0903 74.0577 46.7153 74.0577 41.5331C74.0577 36.3403 75.6931 31.9445 78.9743 28.3456C82.2504 24.7518 86.4171 22.9497 91.4743 22.9497C96.1098 22.9497 99.9379 24.4028 102.954 27.3039V0.283051H115.037V58.9914H103.079V55.0331H102.954C99.9379 58.356 96.1098 60.0122 91.4743 60.0122C86.4171 60.0122 82.2504 58.231 78.9743 54.6581ZM89.2452 35.5747C87.6723 37.1164 86.891 39.0956 86.891 41.5122C86.891 43.9289 87.641 45.9028 89.141 47.4289C90.6514 48.9445 92.641 49.6997 95.0993 49.6997C97.4587 49.6997 99.4014 48.9289 100.933 47.3872C102.459 45.8351 103.224 43.8768 103.224 41.5122C103.224 39.0956 102.438 37.1164 100.87 35.5747C99.2973 34.0331 97.3754 33.2622 95.0993 33.2622C92.7764 33.2622 90.8285 34.0331 89.2452 35.5747Z" fill="white"/>
<path d="M152.223 43.158H126.827C126.827 45.6164 127.624 47.4393 129.223 48.6164C130.816 49.7987 132.546 50.3872 134.41 50.3872C136.368 50.3872 137.915 50.132 139.056 49.6164C140.191 49.0903 141.493 48.0487 142.952 46.4914L151.681 50.8664C148.04 56.9653 141.983 60.0122 133.514 60.0122C128.233 60.0122 123.707 58.2101 119.931 54.5955C116.15 50.9705 114.264 46.6112 114.264 41.5122C114.264 36.4185 116.15 32.0487 119.931 28.408C123.707 24.7726 128.233 22.9497 133.514 22.9497C139.066 22.9497 143.587 24.5539 147.077 27.7622C150.561 30.9705 152.306 35.5539 152.306 41.5122C152.306 42.3351 152.275 42.882 152.223 43.158ZM127.181 36.4705H140.493C140.212 34.6528 139.493 33.257 138.327 32.283C137.171 31.2987 135.686 30.8039 133.868 30.8039C131.868 30.8039 130.27 31.3247 129.077 32.3664C127.895 33.408 127.264 34.7778 127.181 36.4705Z" fill="white"/>
<path d="M159.322 44.3872C161.499 44.3872 163.353 45.1528 164.885 46.6789C166.411 48.1945 167.176 50.0487 167.176 52.2414C167.176 54.382 166.411 56.2153 164.885 57.7414C163.353 59.2518 161.499 60.0122 159.322 60.0122C157.182 60.0122 155.348 59.2518 153.822 57.7414C152.307 56.2153 151.551 54.382 151.551 52.2414C151.551 50.0487 152.307 48.1945 153.822 46.6789C155.348 45.1528 157.182 44.3872 159.322 44.3872Z" fill="white"/>
<path d="M3.68205 70.2038C4.30705 70.2038 4.86955 70.3653 5.36955 70.683C5.87997 71.0059 6.28621 71.4486 6.57788 72.0163C6.86955 72.5892 7.01538 73.2246 7.01538 73.933C7.01538 74.6569 6.86955 75.3028 6.57788 75.8705C6.28621 76.4278 5.87997 76.8653 5.36955 77.183C4.86955 77.5059 4.31746 77.6621 3.72371 77.6621C3.23413 77.6621 2.78621 77.558 2.36955 77.3496C1.9633 77.1413 1.64038 76.8861 1.39038 76.5788V79.6205C1.39038 79.8132 1.32788 79.9746 1.20288 80.0996C1.07788 80.2246 0.916422 80.2871 0.723714 80.2871C0.541422 80.2871 0.390381 80.2246 0.265381 80.0996C0.140381 79.9746 0.0778809 79.8132 0.0778809 79.6205V70.9746C0.0778809 70.7819 0.129965 70.6205 0.244548 70.4955C0.369548 70.3705 0.525797 70.308 0.723714 70.308C0.916422 70.308 1.07788 70.3705 1.20288 70.4955C1.32788 70.6205 1.39038 70.7819 1.39038 70.9746V71.3705C1.59871 71.0528 1.91121 70.7819 2.32788 70.558C2.75496 70.3236 3.20809 70.2038 3.68205 70.2038ZM3.53621 76.4538C3.9633 76.4538 4.34871 76.3444 4.68205 76.1205C5.01538 75.9017 5.27059 75.5996 5.45288 75.2246C5.64559 74.8392 5.74455 74.4069 5.74455 73.933C5.74455 73.4642 5.64559 73.0371 5.45288 72.6621C5.27059 72.2767 5.01538 71.9694 4.68205 71.7455C4.34871 71.5267 3.9633 71.4121 3.53621 71.4121C3.10392 71.4121 2.7133 71.5267 2.36955 71.7455C2.03621 71.9538 1.77059 72.2559 1.57788 72.6413C1.39559 73.0319 1.30705 73.4642 1.30705 73.933C1.30705 74.4069 1.39559 74.8392 1.57788 75.2246C1.77059 75.6153 2.03621 75.9225 2.36955 76.1413C2.7133 76.3496 3.10392 76.4538 3.53621 76.4538Z" fill="white"/>
<path d="M21.0544 70.1621C21.2888 70.1621 21.4919 70.2246 21.6586 70.3496C21.8357 70.4746 21.9294 70.6309 21.9294 70.808C21.9294 71.0319 21.8721 71.2038 21.7627 71.3288C21.6482 71.4434 21.5127 71.4955 21.3461 71.4955C21.2627 71.4955 21.1377 71.4694 20.9711 71.4121C20.7732 71.3444 20.6221 71.308 20.5127 71.308C20.2315 71.308 19.9554 71.4069 19.6794 71.5996C19.4138 71.7976 19.2002 72.0684 19.0336 72.4121C18.8669 72.7611 18.7836 73.1413 18.7836 73.558V76.8705C18.7836 77.0684 18.7211 77.2246 18.5961 77.3496C18.4711 77.4746 18.3096 77.5371 18.1169 77.5371C17.919 77.5371 17.7627 77.4746 17.6377 77.3496C17.5232 77.2246 17.4711 77.0684 17.4711 76.8705V70.9955C17.4711 70.8184 17.5336 70.6621 17.6586 70.5371C17.7836 70.4017 17.9346 70.3288 18.1169 70.3288C18.3096 70.3288 18.4711 70.4017 18.5961 70.5371C18.7211 70.6621 18.7836 70.8184 18.7836 70.9955V71.683C18.9763 71.2403 19.2732 70.8809 19.6794 70.5996C20.0804 70.3236 20.5388 70.1778 21.0544 70.1621Z" fill="white"/>
<path d="M38.9161 73.933C38.9161 74.6569 38.7547 75.3028 38.437 75.8705C38.1141 76.4278 37.6766 76.8705 37.1245 77.2038C36.5672 77.5267 35.9578 77.683 35.2911 77.683C34.6245 77.683 34.0099 77.5267 33.4578 77.2038C32.9005 76.8705 32.463 76.4278 32.1453 75.8705C31.8224 75.3028 31.6661 74.6569 31.6661 73.933C31.6661 73.2246 31.8224 72.5788 32.1453 71.9955C32.463 71.4121 32.9005 70.9642 33.4578 70.6413C34.0099 70.3236 34.6245 70.1621 35.2911 70.1621C35.9578 70.1621 36.5672 70.3236 37.1245 70.6413C37.6766 70.9642 38.1141 71.4121 38.437 71.9955C38.7547 72.5788 38.9161 73.2246 38.9161 73.933ZM37.6245 73.933C37.6245 73.433 37.5203 72.9903 37.312 72.5996C37.1036 72.2142 36.8172 71.9121 36.4578 71.7038C36.1088 71.4851 35.7182 71.3705 35.2911 71.3705C34.8588 71.3705 34.463 71.4851 34.1036 71.7038C33.7547 71.9121 33.4786 72.2142 33.2703 72.5996C33.062 72.9903 32.9578 73.433 32.9578 73.933C32.9578 74.4226 33.062 74.8601 33.2703 75.2455C33.4786 75.6205 33.7547 75.9226 34.1036 76.1413C34.463 76.3653 34.8588 76.4746 35.2911 76.4746C35.7182 76.4746 36.1088 76.3653 36.4578 76.1413C36.8172 75.9226 37.1036 75.6205 37.312 75.2455C37.5203 74.8601 37.6245 74.4226 37.6245 73.933Z" fill="white"/>
<path d="M55.4078 70.2455C55.6005 70.2455 55.762 70.308 55.887 70.433C56.012 70.5476 56.0745 70.7038 56.0745 70.9121V76.9538C56.0745 77.7038 55.913 78.3288 55.5953 78.8288C55.2724 79.3288 54.8453 79.6934 54.3036 79.933C53.762 80.1673 53.1474 80.2871 52.4703 80.2871C52.1057 80.2871 51.6786 80.2246 51.1786 80.0996C50.689 79.9746 50.3765 79.8392 50.2411 79.7038C49.9599 79.5476 49.8245 79.3601 49.8245 79.1413C49.8245 79.084 49.8453 79.0163 49.887 78.933C49.9807 78.6934 50.1474 78.5788 50.387 78.5788C50.512 78.5788 50.6422 78.6048 50.7828 78.6621C51.5015 78.9538 52.0745 79.0996 52.4911 79.0996C53.2255 79.0996 53.788 78.9173 54.1786 78.558C54.564 78.209 54.762 77.7298 54.762 77.1205V76.3705C54.564 76.7351 54.2411 77.0476 53.7828 77.308C53.3349 77.558 52.8557 77.683 52.3453 77.683C51.7203 77.683 51.1422 77.5267 50.6161 77.2038C50.1005 76.8705 49.689 76.4226 49.387 75.8496C49.0953 75.2819 48.9495 74.6361 48.9495 73.9121C48.9495 73.2038 49.0953 72.5684 49.387 71.9955C49.689 71.4121 50.1005 70.9642 50.6161 70.6413C51.1265 70.3236 51.6995 70.1621 52.3245 70.1621C52.8245 70.1621 53.288 70.2819 53.7203 70.5163C54.163 70.7403 54.512 71.0163 54.762 71.3496V70.9121C54.762 70.7194 54.814 70.558 54.9286 70.433C55.0536 70.308 55.2099 70.2455 55.4078 70.2455ZM52.512 76.4746C52.9547 76.4746 53.3505 76.3653 53.6995 76.1413C54.0432 75.9226 54.314 75.6153 54.512 75.2246C54.7203 74.8392 54.8245 74.4017 54.8245 73.9121C54.8245 73.4278 54.7203 72.9955 54.512 72.6205C54.314 72.2351 54.0432 71.9278 53.6995 71.7038C53.3505 71.4851 52.9547 71.3705 52.512 71.3705C52.064 71.3705 51.6682 71.4851 51.3245 71.7038C50.9755 71.9278 50.6995 72.2351 50.4911 72.6205C50.2932 73.0111 50.1995 73.4434 50.1995 73.9121C50.1995 74.4017 50.2932 74.8392 50.4911 75.2246C50.6995 75.6153 50.9755 75.9226 51.3245 76.1413C51.6682 76.3653 52.064 76.4746 52.512 76.4746Z" fill="white"/>
<path d="M70.5421 70.1621C70.7764 70.1621 70.9796 70.2246 71.1462 70.3496C71.3233 70.4746 71.4171 70.6309 71.4171 70.808C71.4171 71.0319 71.3598 71.2038 71.2504 71.3288C71.1358 71.4434 71.0004 71.4955 70.8337 71.4955C70.7504 71.4955 70.6254 71.4694 70.4587 71.4121C70.2608 71.3444 70.1098 71.308 70.0004 71.308C69.7192 71.308 69.4431 71.4069 69.1671 71.5996C68.9014 71.7976 68.6879 72.0684 68.5212 72.4121C68.3546 72.7611 68.2712 73.1413 68.2712 73.558V76.8705C68.2712 77.0684 68.2087 77.2246 68.0837 77.3496C67.9587 77.4746 67.7973 77.5371 67.6046 77.5371C67.4067 77.5371 67.2504 77.4746 67.1254 77.3496C67.0108 77.2246 66.9587 77.0684 66.9587 76.8705V70.9955C66.9587 70.8184 67.0212 70.6621 67.1462 70.5371C67.2712 70.4017 67.4223 70.3288 67.6046 70.3288C67.7973 70.3288 67.9587 70.4017 68.0837 70.5371C68.2087 70.6621 68.2712 70.8184 68.2712 70.9955V71.683C68.4639 71.2403 68.7608 70.8809 69.1671 70.5996C69.5681 70.3236 70.0264 70.1778 70.5421 70.1621Z" fill="white"/>
<path d="M87.4246 70.2455C87.6174 70.2455 87.7788 70.308 87.9038 70.433C88.0288 70.5476 88.0913 70.7038 88.0913 70.9121V76.8705C88.0913 77.0684 88.0288 77.2246 87.9038 77.3496C87.7788 77.4746 87.6174 77.5371 87.4246 77.5371C87.2424 77.5371 87.0913 77.4746 86.9663 77.3496C86.8413 77.2246 86.7788 77.0684 86.7788 76.8705V76.5163C86.5392 76.8392 86.2163 77.1153 85.7996 77.3496C85.3934 77.5684 84.9507 77.683 84.4663 77.683C83.8517 77.683 83.2892 77.5267 82.7788 77.2038C82.2632 76.8705 81.8621 76.4226 81.5705 75.8496C81.2892 75.2819 81.1538 74.6361 81.1538 73.9121C81.1538 73.2038 81.2892 72.5684 81.5705 71.9955C81.8621 71.4121 82.258 70.9642 82.758 70.6413C83.2684 70.3236 83.8257 70.1621 84.4246 70.1621C84.909 70.1621 85.3621 70.2663 85.7788 70.4746C86.2059 70.6726 86.5392 70.9278 86.7788 71.2455V70.9121C86.7788 70.7194 86.8413 70.558 86.9663 70.433C87.0913 70.308 87.2424 70.2455 87.4246 70.2455ZM84.633 76.4746C85.0601 76.4746 85.4455 76.3653 85.7788 76.1413C86.1121 75.9226 86.3674 75.6153 86.5496 75.2246C86.7424 74.8392 86.8413 74.4017 86.8413 73.9121C86.8413 73.4434 86.7424 73.0163 86.5496 72.6413C86.3674 72.2559 86.1121 71.9486 85.7788 71.7246C85.4455 71.4903 85.0601 71.3705 84.633 71.3705C84.2007 71.3705 83.8205 71.4851 83.4871 71.7038C83.1538 71.9278 82.8882 72.2351 82.6955 72.6205C82.4976 72.9955 82.4038 73.4278 82.4038 73.9121C82.4038 74.4017 82.4976 74.8392 82.6955 75.2246C82.8882 75.6153 83.1538 75.9226 83.4871 76.1413C83.8205 76.3653 84.2007 76.4746 84.633 76.4746Z" fill="white"/>
<path d="M107.255 70.2038C108.849 70.2038 109.651 71.2038 109.651 73.2038V76.8705C109.651 77.0684 109.589 77.2246 109.464 77.3496C109.349 77.4746 109.198 77.5371 109.005 77.5371C108.807 77.5371 108.651 77.4746 108.526 77.3496C108.401 77.2246 108.339 77.0684 108.339 76.8705V73.2246C108.339 72.0163 107.839 71.4121 106.839 71.4121C106.474 71.4121 106.151 71.4955 105.859 71.6621C105.568 71.8184 105.339 72.0319 105.172 72.308C105.016 72.5892 104.943 72.8913 104.943 73.2246V76.8705C104.943 77.0684 104.88 77.2246 104.755 77.3496C104.63 77.4746 104.474 77.5371 104.297 77.5371C104.099 77.5371 103.943 77.4746 103.818 77.3496C103.703 77.2246 103.651 77.0684 103.651 76.8705V73.2038C103.651 72.6621 103.531 72.235 103.297 71.9121C103.073 71.5788 102.693 71.4121 102.151 71.4121C101.609 71.4121 101.162 71.5892 100.818 71.933C100.469 72.2819 100.297 72.7038 100.297 73.2038V76.8705C100.297 77.0684 100.234 77.2246 100.109 77.3496C99.9845 77.4746 99.823 77.5371 99.6303 77.5371C99.4324 77.5371 99.2762 77.4746 99.1512 77.3496C99.0366 77.2246 98.9845 77.0684 98.9845 76.8705V70.9955C98.9845 70.8184 99.047 70.6621 99.172 70.5371C99.297 70.4017 99.448 70.3288 99.6303 70.3288C99.823 70.3288 99.9845 70.4017 100.109 70.5371C100.234 70.6621 100.297 70.8184 100.297 70.9955V71.4746C100.531 71.1153 100.844 70.8184 101.234 70.5788C101.636 70.3288 102.073 70.2038 102.547 70.2038C103.682 70.2038 104.422 70.7142 104.755 71.7246C104.964 71.3392 105.297 70.9903 105.755 70.683C106.224 70.3653 106.724 70.2038 107.255 70.2038Z" fill="white"/>
<path d="M128.824 70.2038C130.418 70.2038 131.22 71.2038 131.22 73.2038V76.8705C131.22 77.0684 131.157 77.2246 131.032 77.3496C130.918 77.4746 130.766 77.5371 130.574 77.5371C130.376 77.5371 130.22 77.4746 130.095 77.3496C129.97 77.2246 129.907 77.0684 129.907 76.8705V73.2246C129.907 72.0163 129.407 71.4121 128.407 71.4121C128.043 71.4121 127.72 71.4955 127.428 71.6621C127.136 71.8184 126.907 72.0319 126.74 72.308C126.584 72.5892 126.511 72.8913 126.511 73.2246V76.8705C126.511 77.0684 126.449 77.2246 126.324 77.3496C126.199 77.4746 126.043 77.5371 125.865 77.5371C125.668 77.5371 125.511 77.4746 125.386 77.3496C125.272 77.2246 125.22 77.0684 125.22 76.8705V73.2038C125.22 72.6621 125.1 72.235 124.865 71.9121C124.641 71.5788 124.261 71.4121 123.72 71.4121C123.178 71.4121 122.73 71.5892 122.386 71.933C122.037 72.2819 121.865 72.7038 121.865 73.2038V76.8705C121.865 77.0684 121.803 77.2246 121.678 77.3496C121.553 77.4746 121.391 77.5371 121.199 77.5371C121.001 77.5371 120.845 77.4746 120.72 77.3496C120.605 77.2246 120.553 77.0684 120.553 76.8705V70.9955C120.553 70.8184 120.615 70.6621 120.74 70.5371C120.865 70.4017 121.016 70.3288 121.199 70.3288C121.391 70.3288 121.553 70.4017 121.678 70.5371C121.803 70.6621 121.865 70.8184 121.865 70.9955V71.4746C122.1 71.1153 122.412 70.8184 122.803 70.5788C123.204 70.3288 123.641 70.2038 124.115 70.2038C125.251 70.2038 125.99 70.7142 126.324 71.7246C126.532 71.3392 126.865 70.9903 127.324 70.683C127.793 70.3653 128.293 70.2038 128.824 70.2038Z" fill="white"/>
<path d="M143.351 76.8705C143.351 77.0684 143.288 77.2247 143.163 77.3497C143.038 77.4747 142.882 77.5372 142.705 77.5372C142.507 77.5372 142.351 77.4747 142.226 77.3497C142.111 77.2247 142.059 77.0684 142.059 76.8705V70.933C142.059 70.7403 142.111 70.5788 142.226 70.4538C142.351 70.3288 142.507 70.2663 142.705 70.2663C142.882 70.2663 143.038 70.3288 143.163 70.4538C143.288 70.5788 143.351 70.7403 143.351 70.933V76.8705ZM142.684 69.3497C142.418 69.3497 142.231 69.3028 142.121 69.2038C142.007 69.1101 141.955 68.9538 141.955 68.7455V68.5372C141.955 68.3184 142.017 68.1622 142.142 68.0788C142.267 67.9851 142.455 67.933 142.705 67.933C142.955 67.933 143.132 67.9851 143.246 68.0788C143.371 68.1778 143.434 68.3288 143.434 68.5372V68.7455C143.434 68.9694 143.371 69.1309 143.246 69.2247C143.132 69.308 142.944 69.3497 142.684 69.3497Z" fill="white"/>
<path d="M157.866 70.1621C159.517 70.1621 160.345 71.1569 160.345 73.1413V76.8705C160.345 77.0684 160.283 77.2246 160.158 77.3496C160.033 77.4746 159.871 77.5371 159.679 77.5371C159.496 77.5371 159.345 77.4746 159.22 77.3496C159.095 77.2246 159.033 77.0684 159.033 76.8705V73.1413C159.033 72.6153 158.908 72.1934 158.658 71.8705C158.418 71.5371 158.017 71.3705 157.449 71.3705C157.085 71.3705 156.751 71.4538 156.449 71.6205C156.158 71.7767 155.929 71.9903 155.762 72.2663C155.595 72.5319 155.512 72.8236 155.512 73.1413V76.8705C155.512 77.0684 155.449 77.2246 155.324 77.3496C155.199 77.4746 155.038 77.5371 154.845 77.5371C154.647 77.5371 154.491 77.4746 154.366 77.3496C154.251 77.2246 154.199 77.0684 154.199 76.8705V70.9955C154.199 70.8184 154.262 70.6621 154.387 70.5371C154.512 70.4017 154.663 70.3288 154.845 70.3288C155.038 70.3288 155.199 70.4017 155.324 70.5371C155.449 70.6621 155.512 70.8184 155.512 70.9955V71.4746C155.746 71.1153 156.074 70.808 156.491 70.558C156.918 70.2976 157.376 70.1621 157.866 70.1621Z" fill="white"/>
<path d="M177.27 70.2455C177.463 70.2455 177.624 70.308 177.749 70.433C177.874 70.5476 177.937 70.7038 177.937 70.9121V76.9538C177.937 77.7038 177.775 78.3288 177.458 78.8288C177.135 79.3288 176.708 79.6934 176.166 79.933C175.624 80.1673 175.01 80.2871 174.333 80.2871C173.968 80.2871 173.541 80.2246 173.041 80.0996C172.551 79.9746 172.239 79.8392 172.103 79.7038C171.822 79.5476 171.687 79.3601 171.687 79.1413C171.687 79.084 171.708 79.0163 171.749 78.933C171.843 78.6934 172.01 78.5788 172.249 78.5788C172.374 78.5788 172.504 78.6048 172.645 78.6621C173.364 78.9538 173.937 79.0996 174.353 79.0996C175.088 79.0996 175.65 78.9173 176.041 78.558C176.426 78.209 176.624 77.7298 176.624 77.1205V76.3705C176.426 76.7351 176.103 77.0476 175.645 77.308C175.197 77.558 174.718 77.683 174.208 77.683C173.583 77.683 173.004 77.5267 172.478 77.2038C171.963 76.8705 171.551 76.4226 171.249 75.8496C170.958 75.2819 170.812 74.6361 170.812 73.9121C170.812 73.2038 170.958 72.5684 171.249 71.9955C171.551 71.4121 171.963 70.9642 172.478 70.6413C172.989 70.3236 173.562 70.1621 174.187 70.1621C174.687 70.1621 175.15 70.2819 175.583 70.5163C176.025 70.7403 176.374 71.0163 176.624 71.3496V70.9121C176.624 70.7194 176.676 70.558 176.791 70.433C176.916 70.308 177.072 70.2455 177.27 70.2455ZM174.374 76.4746C174.817 76.4746 175.213 76.3653 175.562 76.1413C175.905 75.9226 176.176 75.6153 176.374 75.2246C176.583 74.8392 176.687 74.4017 176.687 73.9121C176.687 73.4278 176.583 72.9955 176.374 72.6205C176.176 72.2351 175.905 71.9278 175.562 71.7038C175.213 71.4851 174.817 71.3705 174.374 71.3705C173.926 71.3705 173.53 71.4851 173.187 71.7038C172.838 71.9278 172.562 72.2351 172.353 72.6205C172.155 73.0111 172.062 73.4434 172.062 73.9121C172.062 74.4017 172.155 74.8392 172.353 75.2246C172.562 75.6153 172.838 75.9226 173.187 76.1413C173.53 76.3653 173.926 76.4746 174.374 76.4746Z" fill="white"/>
</g>
<defs>
<clipPath id="clip0_3_27">
<rect width="178" height="81" fill="white"/>
</clipPath>
</defs>
</svg>
