<svg width="304" height="16" viewBox="0 0 304 16" fill="none" xmlns="http://www.w3.org/2000/svg">
<mask id="path-1-inside-1_1_133" fill="white">
<path d="M0 7.3H133.1V8.3H0V7.3Z"/>
</mask>
<path d="M133.1 7.3H0V9.3H133.1V7.3Z" fill="white" mask="url(#path-1-inside-1_1_133)"/>
<path d="M151.46 7.70898V8.33789C151.46 9.08529 151.367 9.75521 151.18 10.3477C150.993 10.9401 150.724 11.4437 150.373 11.8584C150.022 12.2731 149.601 12.5898 149.108 12.8086C148.621 13.0273 148.074 13.1367 147.468 13.1367C146.88 13.1367 146.34 13.0273 145.848 12.8086C145.36 12.5898 144.936 12.2731 144.576 11.8584C144.221 11.4437 143.945 10.9401 143.749 10.3477C143.553 9.75521 143.455 9.08529 143.455 8.33789V7.70898C143.455 6.96159 143.551 6.29395 143.742 5.70605C143.938 5.11361 144.214 4.61003 144.569 4.19531C144.925 3.77604 145.346 3.45703 145.834 3.23828C146.326 3.01953 146.866 2.91016 147.454 2.91016C148.06 2.91016 148.607 3.01953 149.095 3.23828C149.587 3.45703 150.008 3.77604 150.359 4.19531C150.715 4.61003 150.986 5.11361 151.173 5.70605C151.364 6.29395 151.46 6.96159 151.46 7.70898ZM150.154 8.33789V7.69531C150.154 7.10286 150.093 6.57878 149.97 6.12305C149.851 5.66732 149.676 5.28451 149.443 4.97461C149.211 4.66471 148.926 4.43001 148.589 4.27051C148.256 4.111 147.878 4.03125 147.454 4.03125C147.044 4.03125 146.673 4.111 146.34 4.27051C146.012 4.43001 145.729 4.66471 145.492 4.97461C145.26 5.28451 145.08 5.66732 144.952 6.12305C144.825 6.57878 144.761 7.10286 144.761 7.69531V8.33789C144.761 8.9349 144.825 9.46354 144.952 9.92383C145.08 10.3796 145.262 10.7646 145.499 11.0791C145.741 11.389 146.025 11.6237 146.354 11.7832C146.686 11.9427 147.058 12.0225 147.468 12.0225C147.896 12.0225 148.277 11.9427 148.609 11.7832C148.942 11.6237 149.222 11.389 149.45 11.0791C149.683 10.7646 149.858 10.3796 149.977 9.92383C150.095 9.46354 150.154 8.9349 150.154 8.33789ZM159.13 3.04688H160.442V9.78027C160.442 10.5277 160.276 11.1497 159.943 11.6465C159.611 12.1432 159.169 12.5169 158.617 12.7676C158.07 13.0137 157.476 13.1367 156.833 13.1367C156.159 13.1367 155.548 13.0137 155.001 12.7676C154.459 12.5169 154.028 12.1432 153.709 11.6465C153.395 11.1497 153.237 10.5277 153.237 9.78027V3.04688H154.543V9.78027C154.543 10.2998 154.639 10.7282 154.83 11.0654C155.021 11.4027 155.288 11.6533 155.63 11.8174C155.976 11.9814 156.377 12.0635 156.833 12.0635C157.293 12.0635 157.694 11.9814 158.036 11.8174C158.382 11.6533 158.651 11.4027 158.843 11.0654C159.034 10.7282 159.13 10.2998 159.13 9.78027V3.04688Z" fill="white"/>
<mask id="path-4-inside-2_1_133" fill="white">
<path d="M170.9 7.3H304V8.3H170.9V7.3Z"/>
</mask>
<path d="M304 7.3H170.9V9.3H304V7.3Z" fill="white" mask="url(#path-4-inside-2_1_133)"/>
</svg>
